<?xml version="1.0" encoding="UTF-8" standalone="no"?>
<!-- Created with Inkscape (http://www.inkscape.org/) -->

<svg
   version="1.1"
   id="svg853"
   xml:space="preserve"
   width="213.10806"
   height="79.476784"
   viewBox="0 0 213.10806 79.47678"
   sodipodi:docname="z-labs-logo-ng.svg"
   inkscape:version="1.3.2 (091e20ef0f, 2023-11-25, custom)"
   xmlns:inkscape="http://www.inkscape.org/namespaces/inkscape"
   xmlns:sodipodi="http://sodipodi.sourceforge.net/DTD/sodipodi-0.dtd"
   xmlns="http://www.w3.org/2000/svg"
   xmlns:svg="http://www.w3.org/2000/svg"
   xmlns:rdf="http://www.w3.org/1999/02/22-rdf-syntax-ns#"
   xmlns:cc="http://creativecommons.org/ns#"
   xmlns:dc="http://purl.org/dc/elements/1.1/"><metadata
     id="metadata859"><rdf:RDF><cc:Work
         rdf:about=""><dc:format>image/svg+xml</dc:format><dc:type
           rdf:resource="http://purl.org/dc/dcmitype/StillImage" /></cc:Work></rdf:RDF></metadata><defs
     id="defs857" /><sodipodi:namedview
     pagecolor="#ffffff"
     bordercolor="#666666"
     borderopacity="1"
     objecttolerance="10"
     gridtolerance="10"
     guidetolerance="10"
     inkscape:pageopacity="0"
     inkscape:pageshadow="2"
     inkscape:window-width="1920"
     inkscape:window-height="1029"
     id="namedview855"
     showgrid="false"
     inkscape:zoom="1.7561513"
     inkscape:cx="172.8211"
     inkscape:cy="-62.921686"
     inkscape:window-x="800"
     inkscape:window-y="0"
     inkscape:window-maximized="1"
     inkscape:current-layer="g863"
     inkscape:showpageshadow="2"
     inkscape:pagecheckerboard="0"
     inkscape:deskcolor="#d1d1d1" /><g
     id="g861"
     inkscape:groupmode="layer"
     inkscape:label="logo2"
     transform="matrix(1.3333333,0,0,1.3333333,0,10.999588)"><g
       id="g863"><g
   aria-label="Z"
   style="font-style:normal;font-variant:normal;font-weight:normal;font-stretch:normal;font-size:48px;font-family:'DejaVu Math TeX Gyre';-inkscape-font-specification:'DejaVu Math TeX Gyre, Normal';font-variant-ligatures:normal;font-variant-caps:normal;font-variant-numeric:normal;font-feature-settings:normal;text-align:start;writing-mode:lr-tb;text-anchor:start;fill:#b31b1b;fill-opacity:1;fill-rule:nonzero;stroke:none"
   id="text867"><path
     d="M 31.419153,34.1735 H 2.0911525 v -1.68 L 23.883153,2.0615001 H 5.7871525 v 5.232 h -2.88 V -0.81849994 H 30.555153 v 1.68 L 8.7631525,31.2935 H 28.539153 v -4.896 h 2.88 z"
     style="font-style:normal;font-variant:normal;font-weight:normal;font-stretch:normal;font-size:48px;font-family:'DejaVu Math TeX Gyre';-inkscape-font-specification:'DejaVu Math TeX Gyre, Normal';font-variant-ligatures:normal;font-variant-caps:normal;font-variant-numeric:normal;font-feature-settings:normal;text-align:start;writing-mode:lr-tb;text-anchor:start"
     id="path853"
     inkscape:connector-curvature="0" /></g>
<g
   aria-label="-LABS"
   style="font-style:normal;font-variant:normal;font-weight:normal;font-stretch:normal;font-size:48px;font-family:'DejaVu Math TeX Gyre';-inkscape-font-specification:'DejaVu Math TeX Gyre, Normal';font-variant-ligatures:normal;font-variant-caps:normal;font-variant-numeric:normal;font-feature-settings:normal;text-align:start;writing-mode:lr-tb;text-anchor:start;fill:#000000;fill-opacity:1;fill-rule:nonzero;stroke:none"
   id="text871"><path
     d="m 41.043152,23.085 h -12 v -3.648 h 12 z"
     id="path842"
     inkscape:connector-curvature="0" /><path
     d="m 69.651152,34.125 h -28.08 v -2.496 h 4.464 v -30 h -4.464 v -2.496 h 13.68 v 2.496 h -4.464 v 29.616 h 15.984 v -5.856 h 2.88 z"
     id="path844"
     inkscape:connector-curvature="0" /><path
     d="m 99.603148,34.125 h -12.72 v -2.496 h 3.888 l -2.928,-7.68 h -14.736 l -2.928,7.68 h 3.84 v 2.496 h -9.84 v -2.496 h 3.072 l 12.48,-32.496 h 3.936 l 12.48,32.496 h 3.456 z m -12.672,-12.672 -6.432,-16.656 -6.432,16.656 z"
     id="path846"
     inkscape:connector-curvature="0" /><path
     d="m 126.53115,23.997 q 0,5.184 -3.264,7.632 -3.264,2.496 -10.272,2.496 H 96.819153 v -2.496 h 4.463997 v -30 h -4.463997 v -2.496 h 17.279997 q 5.328,0 7.968,2.16 2.688,2.16 2.688,6.48 0,3.12 -1.872,4.944 -1.776,1.872 -5.424,2.304 4.464,0.576 6.768,2.88 2.304,2.256 2.304,6.096 z m -8.928,-11.568 q 1.776,-1.44 1.776,-4.656 0,-3.216 -1.776,-4.656 -1.776,-1.488 -5.616,-1.488 h -5.952 v 12.288 h 5.952 q 3.84,0 5.616,-1.488 z m 3.552,11.568 q 0,-3.888 -1.92,-5.808 -2.064,-1.776 -6.192,-1.776 h -7.008 v 15.216 h 7.008 q 4.128,0 6.192,-1.824 1.92,-1.824 1.92,-5.808 z"
     id="path848"
     inkscape:connector-curvature="0" /><path
     d="m 155.66715,24.573 q 0,5.088 -3.264,7.632 -3.264,2.592 -9.696,2.592 -2.88,0 -5.856,-0.576 -3.072,-0.576 -6.096,-1.776 v -7.968 h 2.688 q 0.048,3.984 2.304,5.904 2.208,1.92 6.672,1.92 4.128,0 6.336,-1.632 2.208,-1.728 2.208,-4.848 0,-2.544 -1.344,-3.888 -1.248,-1.344 -5.568,-2.64 l -4.608,-1.392 q -4.896,-1.488 -7.056,-3.792 -2.064,-2.208 -2.064,-6.24 0,-4.464 3.168,-6.912 3.168,-2.448 8.88,-2.448 2.304,0 5.328,0.528 2.784,0.48 6.192,1.536 v 7.44 h -2.64 q -0.336,-3.6 -2.496,-5.376 -2.064,-1.632 -6.288,-1.632 -3.792,0 -5.616,1.536 -1.968,1.392 -1.968,4.368 0,2.496 1.488,3.936 1.488,1.488 6.144,2.832 l 4.32,1.296 q 4.752,1.44 6.816,3.648 2.016,2.208 2.016,5.952 z"
     id="path850"
     inkscape:connector-curvature="0" /></g>
<text
   style="font-variant:normal;font-weight:normal;font-size:14.2px;font-family:'DejaVu Sans';-inkscape-font-specification:DejaVuSans;writing-mode:lr-tb;fill:#000000;fill-opacity:1;fill-rule:nonzero;stroke:none"
   id="text875"
   x="0.57714933"
   y="48.445473"><tspan
     x="0.57714933"
     sodipodi:role="line"
     id="tspan873"
     y="48.445473"
     style="font-size:14.2px">Adversary Simulations</tspan></text>

</g></g></svg>
